<svg width="50" height="50" viewBox="0 0 50 50" fill="none" xmlns="http://www.w3.org/2000/svg">
<path d="M20.1212 19.8102C20.1212 17.4517 18.5166 17.4517 18.5166 17.4517H17.667H11.9151V22.5125H18.1074C19.1775 22.512 20.1212 22.1698 20.1212 19.8102Z" fill="#E3E3E3"/>
<path d="M18.5171 26.0082H11.9151V32.0696H18.2123C19.1596 32.0425 20.9079 31.7458 20.9079 29.1233C20.9079 25.9765 18.5171 26.0082 18.5171 26.0082Z" fill="#E3E3E3"/>
<path d="M35.4184 22.512C31.9151 22.512 31.4266 26.0082 31.4266 26.0082H38.8767C38.8772 26.0082 38.9217 22.512 35.4184 22.512Z" fill="#E3E3E3"/>
<path d="M25 0C11.1928 0 0 11.1933 0 25C0 38.8066 11.1928 50 25 50C38.8072 50 50 38.8066 50 25C50 11.1933 38.8072 0 25 0ZM30.4506 14.756H39.8082V17.5488H30.4506V14.756ZM25.7212 29.4046C25.7212 36.3269 18.5171 36.0992 18.5171 36.0992H11.9151H11.7212H6.71509V13.4199H11.7212H11.9151H18.5166C22.1033 13.4199 24.9345 15.4 24.9345 19.4583C24.9345 23.5171 21.4737 23.7744 21.4737 23.7744C26.0358 23.7744 25.7212 29.4046 25.7212 29.4046ZM35.4629 32.9816C39.2327 32.9816 39.0992 30.5417 39.0992 30.5417H43.0905C43.0905 37.0169 35.3299 36.5734 35.3299 36.5734C26.0169 36.5734 26.6159 27.9033 26.6159 27.9033C26.6159 27.9033 26.6087 19.1903 35.3289 19.1903C44.509 19.1903 43.2235 29.0343 43.2235 29.0343H31.4716C31.4716 33.2486 35.4629 32.9816 35.4629 32.9816Z" fill="#E3E3E3"/>
</svg>
