<svg width="30" height="30" viewBox="0 0 30 30" fill="none" xmlns="http://www.w3.org/2000/svg">
<path d="M4.33359 1.52338C2.27125 1.52338 0.922852 2.87761 0.922852 4.65757C0.922852 6.39822 2.23108 7.79108 4.25446 7.79108H4.29359C6.39627 7.79108 7.70485 6.39822 7.70485 4.65757C7.66554 2.87761 6.39627 1.52338 4.33359 1.52338V1.52338Z" fill="#F398C6"/>
<path d="M1.27924 10.2676H7.30833V28.4064H1.27924V10.2676Z" fill="#F398C6"/>
<path d="M22.1069 9.84192C18.8544 9.84192 16.6735 12.8982 16.6735 12.8982V10.2676H10.6442V28.4064H16.6731V18.277C16.6731 17.7347 16.7124 17.1933 16.8717 16.8055C17.3076 15.7227 18.2994 14.6009 19.9651 14.6009C22.1467 14.6009 23.0193 16.2643 23.0193 18.7027V28.4064H29.0479V18.006C29.0479 12.4345 26.0733 9.84192 22.1069 9.84192V9.84192Z" fill="#F398C6"/>
</svg>
