<svg width="30" height="30" viewBox="0 0 30 30" fill="none" xmlns="http://www.w3.org/2000/svg">
<g clip-path="url(#clip0)">
<path d="M11.8561 14.1389C11.8561 14.1389 14.7029 13.9132 14.7029 10.5722C14.7029 7.23513 12.3711 5.28146 9.42149 5.28146H0V24.6163H8.84582C8.84582 24.6163 15.349 24.459 15.349 18.7647C15.349 18.7647 15.6079 14.1389 11.8561 14.1389ZM9.42149 9.14823C9.42149 9.14823 10.6333 9.08615 10.6333 11.0277C10.6333 12.9681 9.96487 13.0155 9.08522 13.0155H3.8674V9.14823H9.42149ZM9.17231 20.7496C7.5645 20.7496 3.8674 20.7496 3.8674 20.7496V15.9158H9.42149C9.42149 15.9158 11.3869 15.9505 11.3869 18.5374C11.3869 20.6958 9.98838 20.7496 9.17231 20.7496Z" fill="#F398C6"/>
<path d="M23.2546 10.4139C16.08 10.4139 16.0858 17.5586 16.0858 17.5586C16.0858 17.5586 15.5903 24.7185 23.2546 24.7185C23.2546 24.7185 29.6385 24.6163 29.6385 19.7825H26.3566C26.3566 19.7825 26.3487 21.6804 23.2507 21.7464C22.1814 21.7693 20.3041 21.5348 20.3041 18.8159H29.9727C29.9727 18.816 30.8074 10.4139 23.2546 10.4139ZM26.166 15.9158H20.0362C20.0362 15.9158 20.4438 13.1421 23.3279 13.1421C26.209 13.1421 26.166 15.9158 26.166 15.9158Z" fill="#F398C6"/>
<path d="M27.072 6.24852H19.3375V9.14825H27.072V6.24852Z" fill="#F398C6"/>
</g>
<defs>
<clipPath id="clip0">
<rect width="30" height="30" fill="white"/>
</clipPath>
</defs>
</svg>
