<svg width="30" height="30" viewBox="0 0 30 30" fill="none" xmlns="http://www.w3.org/2000/svg">
<g clip-path="url(#clip0)">
<path d="M13.5294 14.846C14.3127 15.3683 15.6872 15.3684 16.4708 14.846C16.4709 14.8459 16.4711 14.8458 16.4712 14.8458L29.8227 5.94465C29.3848 4.67808 28.1811 3.76565 26.7675 3.76565H3.2324C1.81882 3.76565 0.615116 4.67808 0.177124 5.94465L13.529 14.8458C13.5292 14.8459 13.5293 14.8459 13.5294 14.846Z" fill="#F398C6"/>
<path d="M17.4462 16.3084C17.446 16.3085 17.4459 16.3086 17.4458 16.3087C16.7601 16.7658 15.8799 16.9944 15 16.9944C14.1199 16.9944 13.2401 16.7659 12.5543 16.3086C12.5542 16.3086 12.5542 16.3085 12.554 16.3085L0 7.93916V23.0021C0 24.7844 1.45003 26.2343 3.23241 26.2343H26.7677C28.55 26.2343 30 24.7844 30 23.0021V7.93916L17.4462 16.3084Z" fill="#F398C6"/>
</g>
<defs>
<clipPath id="clip0">
<rect width="30" height="30" fill="white"/>
</clipPath>
</defs>
</svg>
