<svg width="837" height="675" viewBox="0 0 837 675" fill="none" xmlns="http://www.w3.org/2000/svg">
<g id="undraw_fitting_pieces_cli3 (2) 1" clip-path="url(#clip0)">
<path id="Vector" d="M674 282C741.931 282 797 226.931 797 159C797 91.069 741.931 36 674 36C606.069 36 551 91.069 551 159C551 226.931 606.069 282 674 282Z" fill="#F2F2F2"/>
<path id="Vector_2" d="M694 264C761.931 264 817 208.931 817 141C817 73.069 761.931 18 694 18C626.069 18 571 73.069 571 141C571 208.931 626.069 264 694 264Z" fill="#F398C6"/>
<g id="start3">
<path id="Vector_3" d="M166 72H58V180H166V72Z" fill="#F2F2F2"/>
</g>
<g id="start2">
<path id="Vector_4" d="M181 56H73V164H181V56Z" fill="#F398C6"/>
</g>
<path id="Vector_5" d="M234 142H92V0H234V142ZM94 140H232V2H94V140Z" fill="#3F3D56"/>
<path id="Vector_6" d="M329 275H301V303H329V275Z" fill="#F2F2F2"/>
<g id="start1">
<path id="Vector_7" d="M335 268H307V296H335V268Z" fill="#F398C6"/>
</g>
<path id="Vector_8" d="M362 286H316V240H362V286ZM318 284H360V242H318V284Z" fill="#3F3D56"/>
<path id="Vector_9" d="M687.27 669.676H528.857V671.55H687.27V669.676Z" fill="#3F3D56"/>
<path id="Vector_10" d="M836.27 499.676H677.857V501.55H836.27V499.676Z" fill="#3F3D56"/>
<path id="Vector_11" d="M627.314 58.4628H627.314C597.132 66.6388 580.021 100.419 589.095 133.914L600.623 176.469L613.711 172.924L617.017 155.104L619.394 171.384L703.519 148.595L706.524 132.396L708.685 147.196L718.156 144.63L709.105 111.217C698.664 72.6731 662.045 49.0545 627.314 58.4628Z" fill="#2F2E41"/>
<path id="Vector_12" d="M565.5 579.5L578.5 625.5L576.5 642.5L614.5 634.5C614.5 634.5 598.5 607.5 600.5 593.5L565.5 579.5Z" fill="#FFB8B8"/>
<path id="Vector_13" d="M737.5 414.5L727.5 468.5L760.5 463.5L762 407L737.5 414.5Z" fill="#FFB8B8"/>
<path id="Vector_14" d="M638.5 154.5C658.382 154.5 674.5 138.382 674.5 118.5C674.5 98.6177 658.382 82.5 638.5 82.5C618.618 82.5 602.5 98.6177 602.5 118.5C602.5 138.382 618.618 154.5 638.5 154.5Z" fill="#FFB8B8"/>
<path id="Vector_15" d="M627 145L625 165L609 174L651 267L683 190L662 174L660 136L627 145Z" fill="#FFB8B8"/>
<path id="Vector_16" d="M656.5 244.5L615.545 170.319C615.545 170.319 582.5 172.5 574.5 179.5L590.5 281.5L585.5 294.5C585.5 294.5 544.5 336.5 552.5 427.5C560.5 518.5 560.5 589.5 560.5 589.5C560.5 589.5 589.5 623.5 649.5 589.5V408.5L734.5 401.5V423.5C734.5 423.5 822.5 401.5 824.5 368.5L801.862 329.181C797.488 321.585 790.679 315.686 782.537 312.44C774.395 309.194 765.396 308.791 756.995 311.295L682.5 333.5L674.5 303.5L682.5 281.5C682.5 281.5 703.5 265.5 703.5 244.5C703.5 223.5 709.5 198.5 709.5 198.5L670.601 180.553L656.5 244.5Z" fill="#2F2E41"/>
<path id="Vector_17" d="M727.5 236.5L743.5 275.5C743.5 275.5 760.5 295.5 763.5 317.5L768.5 343.5C768.5 343.5 780.5 389.5 761.5 387.5C742.5 385.5 747.5 341.5 747.5 341.5L744.5 328.5L727.5 300.5L702.415 252.82L727.5 236.5Z" fill="#FFB8B8"/>
<path id="Vector_18" d="M730.5 459.5C730.5 459.5 759.115 462.307 764.807 449.403L793.5 472.5C793.5 472.5 845.465 486.417 816.5 498.5C789.501 509.763 762.5 497.738 762.5 500.5C762.5 500.5 754.5 493.5 745.5 498.5C736.5 503.5 709.5 498.5 710.5 490.5C711.5 482.5 715.5 453.5 730.5 459.5Z" fill="#2F2E41"/>
<path id="Vector_19" d="M577.5 630.5C577.5 630.5 606.115 633.307 611.807 620.404L640.5 643.5C640.5 643.5 692.666 657.909 663.5 669.5C636.528 680.219 609.514 668.903 609.5 671.5C609.5 671.5 601.5 664.5 592.5 669.5C583.5 674.5 556.5 669.5 557.5 661.5C558.5 653.5 562.5 624.5 577.5 630.5Z" fill="#2F2E41"/>
<path id="Vector_20" d="M696.5 194.5L709.5 198.5L737.5 240.5L686.5 274.5L696.5 194.5Z" fill="#2F2E41"/>
<path id="Vector_21" d="M647.375 70.9607C639.974 65.382 630.669 63.0994 621.635 65.5466L620.562 65.8373C599.876 71.4411 588.177 94.7026 594.432 117.793V117.793L601.364 115.916L600.175 107.092L604.124 115.168L645.234 104.031L646.726 95.8898L647.818 103.332L655.905 101.141C664.756 118.861 664.411 139.072 654.869 161.774L668.646 158.042L671.629 141.759L673.812 156.643L700.074 149.528L696.258 114.969C689.531 90.1361 669.397 72.9867 647.375 70.9607Z" fill="#2F2E41"/>
<path id="Vector_22" d="M656 67C665.941 67 674 58.9411 674 49C674 39.0589 665.941 31 656 31C646.059 31 638 39.0589 638 49C638 58.9411 646.059 67 656 67Z" fill="#2F2E41"/>
<path id="Vector_23" d="M655 59C650.785 59.0024 646.704 57.5249 643.467 54.8252C640.23 52.1255 638.044 48.3751 637.29 44.2284C636.536 40.0816 637.262 35.8018 639.341 32.1356C641.42 28.4694 644.721 25.6496 648.667 24.1682C646.147 24.4915 643.725 25.3447 641.559 26.6717C639.393 27.9987 637.532 29.7693 636.1 31.8671C634.668 33.9649 633.696 36.3423 633.248 38.8427C632.801 41.3432 632.888 43.91 633.504 46.3743C634.121 48.8386 635.252 51.1445 636.823 53.1401C638.395 55.1358 640.371 56.7761 642.622 57.9529C644.873 59.1298 647.348 59.8166 649.884 59.968C652.419 60.1195 654.958 59.7323 657.333 58.8319C656.56 58.9383 655.781 58.9944 655 59V59Z" fill="#2F2E41"/>
<path id="Vector_24" d="M661.5 125C663.985 125 666 122.09 666 118.5C666 114.91 663.985 112 661.5 112C659.015 112 657 114.91 657 118.5C657 122.09 659.015 125 661.5 125Z" fill="#FFB8B8"/>
<path id="Vector_25" d="M575 469C550.245 465.315 520.258 466.172 488 469C501.449 444.34 501.449 422.674 488 404C516.894 407.508 546.106 407.508 575 404C562.611 424.626 563.704 446.384 575 469Z" fill="#F398C6"/>
<path id="Vector_26" d="M563.5 239.5L560.5 279.5C560.5 279.5 546.5 301.5 543.5 348.5L542.5 377.5C542.5 377.5 521.5 418.5 538.5 417.5C555.5 416.5 554.5 378.5 554.5 378.5L584.5 291.5V249.5L563.5 239.5Z" fill="#FFB8B8"/>
<path id="Vector_27" d="M581.5 180.5H574.5C574.5 180.5 563.5 187.5 554.5 217.5C545.5 247.5 544.5 248.5 544.5 248.5L591.5 259.5L581.5 180.5Z" fill="#2F2E41"/>
<path id="Vector_28" d="M546 424H518V452H546V424Z" fill="#D0CDE1"/>
</g>
<defs>
<clipPath id="clip0">
<rect width="836.27" height="674.205" fill="white"/>
</clipPath>
</defs>
</svg>
