<svg width="170" height="170" viewBox="0 0 170 170" fill="none" xmlns="http://www.w3.org/2000/svg">
<g clip-path="url(#clip0)">
<path d="M111.632 166.426C109.296 165.65 106.453 162.422 107.061 157.984C107.363 155.783 108.522 154.358 109.723 153.437C111.385 152.163 113.277 151.683 115.101 151.562C117.204 151.422 119.305 151.774 121.393 152.148C123.454 152.516 125.515 152.846 127.585 153.047C131.665 153.442 135.756 153.45 139.836 153.069C143.836 152.699 147.817 151.955 151.755 150.839C153.709 150.284 155.652 149.633 157.583 148.886C159.399 148.23 161.187 147.408 162.936 146.425C165.232 145.069 168.965 142.43 168.66 137.543C168.499 134.952 167.259 132.883 166.008 131.441C164.495 129.698 162.745 128.551 161.031 127.437C153.057 122.256 145.067 117.136 137.086 111.987C135.223 110.785 133.348 109.615 131.54 108.207C129.847 106.888 128.163 105.356 126.8 103.238C125.611 101.388 124.548 98.905 124.585 96.1289C124.616 93.8267 125.468 91.873 126.511 90.4129C129.093 86.7979 132.745 85.3322 136.047 84.5645C140.148 83.6107 144.309 83.6156 148.413 82.6945C151.727 81.9508 155.268 80.5152 157.963 77.1509C158.996 75.8609 159.908 74.2007 160.291 72.1466C160.634 70.1475 160.464 68.0286 159.812 66.2083C159.082 64.0629 157.917 62.3538 156.693 60.9544C155.245 59.3353 153.653 58.0265 151.962 57.0659C148.322 54.9318 144.495 53.8207 140.766 52.183C138.938 51.3798 137.091 50.4991 135.393 49.1195C133.954 47.9508 132.387 46.3753 131.587 44.0326C129.936 39.1989 133.875 36.3181 136.107 35.2269C137.636 34.5146 139.198 33.9648 140.779 33.5815C141.115 33.4925 140.973 32.666 140.638 32.7545C138.974 33.1519 137.334 33.7412 135.732 34.5169C134.386 35.2049 132.997 36.1092 131.94 37.6652C131.052 38.9721 130.499 40.829 130.736 42.7892C131.016 45.1085 132.233 46.8955 133.377 48.1899C134.889 49.9016 136.612 51.0194 138.36 51.9307C140.201 52.8904 142.081 53.6383 143.96 54.3719C147.715 55.8379 151.638 57.1443 155.028 60.2637C157.399 62.4458 160.62 66.5373 159.832 71.6086C159.481 73.8599 158.418 75.6199 157.271 76.9145C155.884 78.479 154.296 79.5477 152.685 80.3453C145.173 84.0646 136.906 81.4048 129.588 86.4564C127.1 88.174 124.078 91.3011 124.053 96.2215C124.041 98.7775 124.874 101.122 125.903 102.975C127.136 105.194 128.733 106.835 130.358 108.207C132.084 109.609 133.86 110.874 135.677 111.996C137.679 113.289 139.681 114.581 141.684 115.871L153.837 123.713L159.875 127.609C161.718 128.798 163.609 129.938 165.284 131.684C166.656 133.113 168.277 135.458 168.137 138.369C168.026 140.681 166.778 142.35 165.637 143.466C164.16 144.91 162.5 145.845 160.849 146.621C158.945 147.517 157.009 148.259 155.069 148.927C151.075 150.299 147.024 151.274 142.944 151.847C138.85 152.427 134.735 152.615 130.625 152.412C128.548 152.309 126.473 152.105 124.402 151.799C122.267 151.483 120.142 150.995 118.001 150.779C116.065 150.583 114.111 150.629 112.204 151.257C110.612 151.782 108.93 152.718 107.722 154.543C107.294 155.185 106.961 155.953 106.745 156.799C106.529 157.645 106.434 158.549 106.468 159.453C106.568 161.279 107.087 162.997 107.937 164.318C108.896 165.809 110.135 166.832 111.49 167.253C111.824 167.364 111.967 166.538 111.632 166.426L111.632 166.426Z" fill="#E6E6E6"/>
<path d="M170 167.068H0V167.709H170V167.068Z" fill="#3F3D56"/>
<path d="M155.738 136.549L163.732 154.25L156.289 165.365L155.324 162.483L156.978 156.72C156.978 156.72 156.703 151.369 155.738 149.928C154.773 148.487 150.5 139.842 150.5 139.842L155.738 136.549Z" fill="#FFB8B8"/>
<path d="M145.538 79.3296C145.538 79.3296 147.054 82.9123 143.884 98.3493C143.884 98.3493 158.671 135.617 156.328 138.087C153.985 140.557 147.644 146.023 145.99 144.376C144.336 142.73 132.307 86.9451 132.307 86.9451L145.538 79.3296Z" fill="#2F2E41"/>
<path d="M162.285 151.06L164.697 154.662C165.937 156.514 166.764 159.19 164.421 161.454C162.078 163.718 153.946 172.157 151.189 169.481C148.433 166.806 154.497 164.336 154.497 164.336C154.497 164.336 155.5 158.783 156.033 160.016C156.565 161.248 156.565 163.718 156.565 163.718L162.285 151.06Z" fill="#2F2E41"/>
<path d="M133.134 146.223C133.134 146.223 128.723 158.367 128.723 159.808C128.723 161.248 128.999 165.365 128.999 165.365L120.591 168.452L117.696 166.394L118.661 162.689C118.661 162.689 123.899 160.013 125.001 154.868C126.104 149.722 127.345 144.371 127.345 144.371L133.134 146.223Z" fill="#FFB8B8"/>
<path d="M138.233 25.4031C141.43 25.4031 144.022 21.5327 144.022 16.7584C144.022 11.984 141.43 8.11368 138.233 8.11368C135.036 8.11368 132.444 11.984 132.444 16.7584C132.444 21.5327 135.036 25.4031 138.233 25.4031Z" fill="#FFB8B8"/>
<path d="M136.717 24.1681L139.481 36.0268L145.538 31.9895C145.538 31.9895 141.403 22.5215 141.403 21.2865L136.717 24.1681Z" fill="#FFB8B8"/>
<path d="M135.89 66.3625H143.195C143.195 66.3625 148.433 78.3004 145.4 90.8558C144.936 92.7785 144.475 95.4717 144.015 98.6559C142.957 105.979 141.904 115.898 140.824 125.013C139.307 137.816 137.74 149.033 136.035 149.236C132.589 149.648 125.889 149.579 125.889 147.521C125.889 145.463 130.377 85.916 130.377 85.916L131.342 83.4461L131.524 72.6874C131.553 70.9897 132.026 69.3765 132.842 68.1939C133.659 67.0114 134.753 66.3539 135.89 66.3625L135.89 66.3625Z" fill="#2F2E41"/>
<path d="M128.654 159.705C128.654 159.705 130.239 163.718 129.825 166.6C129.412 169.481 128.723 169.07 125.691 169.481C122.658 169.893 112.321 169.893 112.321 167.012C112.321 164.13 120.385 160.388 120.419 161.539C120.453 162.689 120.729 164.953 119.902 165.365C119.075 165.777 119.833 165.468 119.833 165.468L128.654 159.705Z" fill="#2F2E41"/>
<path d="M133.252 90.9787C133.252 90.9787 131.594 105.416 127.935 100.442C124.276 95.4672 130.371 88.5508 130.371 88.5508L133.252 90.9787Z" fill="#FFB8B8"/>
<path d="M144.7 72.7967C144.892 72.9261 145.104 72.975 145.313 72.938C145.523 72.9009 145.721 72.7795 145.888 72.5866C146.13 72.3031 146.291 71.8933 146.339 71.4397C146.917 66.4623 147.621 52.6636 148.027 45.6861C148.535 36.9307 145.994 30.1494 145.973 30.1082L144.475 27.0331C144.32 26.7118 144.096 26.4786 143.84 26.3715C143.585 26.2643 143.312 26.2896 143.067 26.4431C143.067 26.4431 138.392 33.6869 138.375 33.9666C138.301 35.1676 137.745 37.829 134.845 42.1602C131.671 46.8993 131.653 51.0354 131.724 52.1902C131.728 52.2662 131.731 52.342 131.731 52.4178C131.725 52.9359 131.772 53.4524 131.871 53.9492C133.2 60.2071 132.159 67.6993 130.487 75.5199C130.424 75.8732 130.436 76.2473 130.521 76.5902C130.606 76.9331 130.761 77.228 130.963 77.4339C131.451 77.9299 130.866 77.1939 131.04 77.5126C132.192 79.6207 133.85 76.6826 135.747 73.4767C136.407 72.3599 137.156 71.0941 138.038 69.7763C139.252 67.9644 141.57 72.099 142.648 72.099C143.357 72.1118 144.057 72.3496 144.7 72.7967Z" fill="#6C63FF"/>
<path d="M146.092 33.9696C146.092 33.9696 148.825 38.2505 146.756 42.888C144.687 47.5255 144.649 51.1883 144.649 51.1883C144.649 51.1883 141.727 84.8857 136.504 82.3745L133.341 91.9991L129.124 88.9182L132.308 80.4934C132.308 80.4934 130.289 79.9734 131.034 78.0016C131.558 76.6167 134.957 61.2166 136.934 52.1719C137.772 48.3391 138.355 45.6476 138.355 45.6476C138.355 45.6476 141.093 32.1204 146.092 33.9696Z" fill="#6C63FF"/>
<path opacity="0.2" d="M145.469 51.2342L142.566 67.5407L144.774 49.9589L145.469 51.2342Z" fill="black"/>
<path d="M131.917 12.9281C131.917 12.9281 130.944 1.61756 138.885 5.32655C138.885 5.32655 144.556 3.77257 146.416 14.3663L148.3 25.4712L147.382 24.7252L146.954 26.1219L145.467 26.6844L144.83 24.798L144.522 27.0888L132.341 28.9022C132.341 28.9022 137.797 24.0839 137.883 15.4484L136.844 17.0884L131.917 12.9281Z" fill="#2F2E41"/>
<path d="M18.114 0.950409C17.9298 0.951438 17.7535 1.06152 17.6236 1.25652C17.4937 1.45151 17.4209 1.71548 17.4211 1.99052V86.247C17.4209 86.522 17.4936 86.786 17.6235 86.981C17.7534 87.176 17.9298 87.2861 18.114 87.2871H98.6653C98.8495 87.2861 99.0259 87.176 99.1557 86.981C99.2856 86.786 99.3584 86.522 99.3581 86.247V1.99052C99.3584 1.71549 99.2856 1.45152 99.1557 1.25653C99.0258 1.06153 98.8495 0.951443 98.6653 0.950409H18.114Z" fill="#3F3D56"/>
<path d="M17.8243 50.4684C20.2815 50.4577 22.6012 51.7618 24.6245 53.7896C26.7481 55.9181 28.543 58.7381 30.1196 61.7247C31.8619 65.025 33.3548 68.596 34.9574 72.0455C36.4374 75.2312 38.0233 78.3282 39.9307 80.9752C41.7353 83.4795 43.8253 85.585 46.1825 86.7269C46.4696 86.866 46.76 86.9889 47.0528 87.0986C47.3828 87.2223 47.5236 86.4613 47.1933 86.3375C44.7727 85.4303 42.6085 83.4655 40.7479 81.0166C38.8065 78.4612 37.1924 75.4289 35.7085 72.2773C34.0928 68.8458 32.6062 65.2781 30.8979 61.9447C29.3173 58.8605 27.5398 55.9606 25.4285 53.6689C23.4694 51.5422 21.1999 50.0275 18.7671 49.7319C18.4534 49.6938 18.139 49.6777 17.8243 49.679C17.7557 49.6826 17.6908 49.7257 17.6432 49.7993C17.5956 49.8729 17.569 49.9713 17.569 50.0737C17.569 50.176 17.5956 50.2744 17.6432 50.348C17.6908 50.4217 17.7557 50.4648 17.8243 50.4683L17.8243 50.4684Z" fill="#6C63FF"/>
<path d="M18.0988 86.9101C22.4212 80.3812 28.3302 77.2949 34.1981 75.2929C40.3354 73.1989 46.6672 72.0748 52.4984 68.3391C55.2829 66.6033 57.8389 64.1429 60.0473 61.0725C62.1092 58.1311 63.8196 54.6855 65.1048 50.8843C67.7278 43.1784 68.5436 34.3811 67.4216 25.9007C66.2346 17.2791 63.2916 9.41649 58.9958 3.38978C58.4723 2.65496 57.9304 1.95146 57.3699 1.27926C57.1074 0.963524 56.7311 1.51862 56.9962 1.83741C61.5619 7.3351 64.8681 14.8193 66.4557 23.2508C68.0068 31.5683 67.6054 40.4279 65.3181 48.3575C64.2083 52.2095 62.6724 55.7552 60.7747 58.8462C58.7615 62.0701 56.3673 64.7121 53.7125 66.6396C48.0561 70.8099 41.7249 72.1009 35.6179 74.0213C29.8597 75.832 23.986 78.4148 19.3693 84.1042C18.7962 84.8115 18.2474 85.5618 17.7251 86.3519C17.4857 86.7135 17.8592 87.272 18.0988 86.9101V86.9101Z" fill="#6C63FF"/>
<path d="M17.7746 37.4843C24.4083 34.8049 31.428 35.164 37.9233 38.5148C39.8103 39.4812 41.7457 40.6043 43.3243 42.4728C44.6824 44.0802 45.8748 46.5135 45.5356 49.2455C45.2229 51.764 43.6716 53.7533 42.002 54.1173C40.28 54.4927 38.7111 52.9279 37.9212 50.7105C37.518 49.6107 37.3338 48.3617 37.3904 47.1108C37.4469 45.8598 37.7419 44.6591 38.2404 43.6503C39.2387 41.6426 40.8983 40.496 42.5292 40.1781C44.3936 39.8147 46.2272 40.6353 47.8398 42.0075C51.4844 45.1087 53.8118 50.5153 56.8725 54.6369C58.3394 56.6745 60.0618 58.2585 61.9405 59.2976C63.7575 60.2354 65.6742 60.6683 67.5956 60.5748C71.6233 60.4216 75.4853 58.2489 78.7758 54.8407C82.0766 51.4219 84.8028 46.9332 87.1898 42.1427C88.4661 39.5811 89.5755 36.8287 90.9111 34.3348C92.2258 31.8799 93.8527 29.6975 95.9329 28.8757C96.8798 28.4846 97.8791 28.4764 98.8288 28.8518C98.8955 28.8756 98.9658 28.8597 99.0248 28.8076C99.0838 28.7556 99.127 28.6713 99.1452 28.5726C99.1634 28.4739 99.1553 28.3684 99.1225 28.2785C99.0897 28.1886 99.0347 28.1213 98.9693 28.0907C96.9468 27.2671 94.8206 28.2311 93.1437 29.9889C91.3501 31.8691 90.0648 34.5943 88.8455 37.2633C86.4095 42.5957 83.786 47.7634 80.4561 51.9348C77.1316 56.0996 73.1305 59.084 68.7689 59.682C66.6824 59.9961 64.575 59.6895 62.5684 58.7798C60.4708 57.7958 58.6519 56.0186 57.0441 53.8032C53.8852 49.4505 51.4281 43.7371 47.4743 40.8236C45.8079 39.5955 43.9842 39.0063 42.1374 39.4739C40.5114 39.8856 38.912 41.0829 37.8869 43.0499C37.3676 44.0388 37.0288 45.2117 36.9035 46.4544C36.7783 47.6971 36.8708 48.967 37.1722 50.1403C37.7562 52.4302 39.0594 54.408 40.7143 54.8589C42.3848 55.314 44.13 54.1637 45.1731 52.2057C45.6953 51.2233 46.0124 50.0331 46.085 48.7835C46.1576 47.5339 45.9824 46.28 45.5814 45.1779C44.7234 42.7012 43.0494 40.9888 41.4189 39.7804C39.3706 38.3119 37.2205 37.1835 35.0074 36.4153C30.4657 34.7614 25.748 34.484 21.1333 35.5995C19.9551 35.8867 18.7872 36.2617 17.6341 36.7231C17.5687 36.7538 17.5137 36.8211 17.4809 36.911C17.4481 37.0009 17.44 37.1063 17.4582 37.2051C17.4764 37.3038 17.5196 37.3881 17.5786 37.4401C17.6376 37.4922 17.7079 37.5081 17.7746 37.4843H17.7746Z" fill="#6C63FF"/>
<path d="M72.9226 87.2566C74.7927 83.5064 76.7049 79.5285 77.5121 74.9403C77.914 72.7503 77.973 70.4514 77.6844 68.2218C77.4053 66.2778 76.8613 64.4404 76.0863 62.8237C74.4969 59.4524 72.1536 56.9469 69.6601 55.2555C66.572 53.1609 63.2419 52.0868 60.0189 50.5764C57.048 49.1841 54.002 47.3675 51.7827 43.9836C49.6858 40.7865 48.4978 35.9742 49.6673 31.6458C50.7284 27.7184 53.3145 25.1139 55.896 23.7389C59.0611 22.0531 62.451 21.7497 65.6763 20.4135C68.3728 19.2965 71.1323 17.3919 72.8018 13.8948C74.2167 10.9312 74.6708 6.65739 73.5399 3.34498C73.2641 2.54199 72.8929 1.82051 72.4444 1.21568C72.1928 0.875251 71.8179 1.43183 72.0706 1.77383C73.9778 4.35483 74.0005 8.77067 72.9259 12.0395C71.6643 15.8776 68.9403 18.0639 66.3183 19.3057C63.1975 20.7838 59.895 21.0993 56.7591 22.49C54.0789 23.6786 51.457 25.8096 49.8798 29.3714C49.1139 31.0772 48.6939 33.0767 48.6702 35.1301C48.6784 37.3274 49.071 39.4834 49.8091 41.3844C51.3001 45.3376 53.9577 47.8949 56.6928 49.6206C62.4431 53.2486 69.2648 53.8026 74.0023 60.4544C76.0368 63.311 77.4183 67.105 77.3385 71.355C77.2505 76.0426 75.5725 80.3075 73.8271 84.0532C73.3855 85.001 72.928 85.9321 72.4662 86.8582C72.2629 87.2659 72.7215 87.6598 72.9226 87.2566V87.2566Z" fill="#6C63FF"/>
<path d="M29.7525 2.00523C30.48 2.79702 31.0688 3.83931 31.4689 5.04358C31.8689 6.24785 32.0684 7.57852 32.0505 8.92257C32.0218 10.2834 31.7683 11.6125 31.3123 12.7914C30.8563 13.9704 30.2122 14.9627 29.4372 15.6798C27.9693 16.9737 25.9061 17.1365 24.7372 15.0222C24.2537 14.1645 24.0127 13.0595 24.0651 11.9411C24.1067 11.4014 24.2348 10.8845 24.4384 10.4343C24.6421 9.98409 24.9154 9.61376 25.2352 9.35465C26.718 8.09124 28.4952 8.83506 29.8655 10.0456C30.7137 10.795 31.4898 11.7065 32.3008 12.539C33.0756 13.3411 33.903 14.0236 34.7702 14.5759C38.2227 16.7537 42.2737 16.7796 45.6771 14.3723C47.2191 13.2698 48.6002 11.7234 49.741 9.8218C50.8819 7.92023 51.76 5.70095 52.3251 3.29133C52.4614 2.69559 52.5763 2.08938 52.6693 1.47531C52.7446 0.980703 52.2351 0.769531 52.1596 1.26547C51.3654 6.48455 48.9389 10.9976 45.7595 13.4336C42.2939 16.0889 38.0151 16.0146 34.5123 13.5455C33.6144 12.8849 32.7584 12.104 31.955 11.2122C31.1288 10.3279 30.3048 9.41476 29.3811 8.76565C27.9292 7.7453 26.0287 7.45814 24.6671 8.96726C24.3478 9.31419 24.0817 9.75895 23.8867 10.2718C23.6918 10.7847 23.5724 11.3538 23.5366 11.9411C23.4851 13.1436 23.7253 14.3336 24.2131 15.2934C25.3456 17.5748 27.3843 17.8978 29.0565 16.8445C30.8153 15.7367 32.0824 13.2285 32.4585 10.4566C32.6838 8.74518 32.5735 6.97303 32.1408 5.35296C31.7081 3.73288 30.9714 2.33377 30.0193 1.32366C29.7427 1.02662 29.4785 1.711 29.7525 2.00523H29.7525Z" fill="#6C63FF"/>
<path d="M85.8086 87.1049C86.3692 83.3005 87.4875 79.7289 89.0831 76.6473C90.6722 73.5565 92.6808 71.0023 94.9773 69.1522C96.267 68.1163 97.6405 67.3322 99.0641 66.8194C99.3947 66.7005 99.2547 65.9391 98.9236 66.0582C96.3247 67.0163 93.8998 68.8209 91.8227 71.3428C89.7367 73.8488 88.0296 76.986 86.8137 80.548C86.1289 82.5581 85.6198 84.6912 85.2989 86.895C85.2275 87.3903 85.7369 87.602 85.8086 87.1049H85.8086Z" fill="#6C63FF"/>
<path d="M83.002 1.33274C81.875 1.34969 80.9246 2.51456 80.4631 3.9998C79.9393 5.68528 80.0825 7.54011 80.644 9.16405C81.9539 12.9525 84.8138 14.2951 86.8732 16.9144C87.8286 18.1297 88.6614 19.6761 88.8806 21.5683C89.0943 23.4128 88.6532 25.3137 87.9305 26.798C87.1414 28.4186 85.9514 29.5329 84.7118 30.2356C83.4368 30.9595 82.0902 31.3627 80.7269 31.4286C79.4099 31.4843 78.0175 31.1407 76.9269 29.9675C76.4743 29.4843 76.0937 28.866 75.8094 28.1518C75.5251 27.4375 75.3432 26.6428 75.2753 25.8181C75.2195 25.0724 75.3043 24.3182 75.5199 23.6405C75.7356 22.9627 76.0737 22.3884 76.4961 21.982C77.348 21.2298 78.3585 20.9849 79.326 21.2962C81.7362 22.0075 82.9847 25.579 83.5177 28.853C84.1964 33.0221 83.9268 37.4542 84.9707 41.5052C85.8606 44.9332 87.4807 47.8291 89.5813 49.7468C91.989 51.9339 94.5814 52.6417 97.3135 51.5734C98.0093 51.2959 98.6858 50.9201 99.3339 50.451C99.6406 50.2318 99.3728 49.5509 99.0671 49.7694C96.3512 51.7108 93.5724 51.7728 90.8391 49.8597C88.5742 48.255 86.759 45.5125 85.7109 42.1117C84.4742 38.0923 84.7201 33.5792 84.1314 29.3336C83.6575 25.9163 82.5066 22.1072 80.1554 20.8223C78.2634 19.7883 75.7276 20.5909 74.94 23.6335C74.5283 25.2239 74.7665 27.0425 75.3321 28.4783C75.9701 30.0513 76.9778 31.2127 78.1584 31.7357C79.4844 32.365 80.9153 32.3123 82.2753 31.992C83.6441 31.7064 84.9675 31.0572 86.183 30.075C87.3473 29.1308 88.2943 27.6849 88.9005 25.9256C89.4654 24.206 89.6472 22.2047 89.2177 20.3722C88.2688 16.3234 85.3989 14.6516 83.2564 12.3106C82.2008 11.1571 81.2099 9.64201 80.8166 7.73283C80.6323 6.91508 80.6072 6.03606 80.7441 5.19784C80.8811 4.35963 81.1744 3.5966 81.5901 2.99737C81.9704 2.45124 82.4744 2.13877 83.002 2.12207C83.0705 2.11852 83.1354 2.07539 83.183 2.00176C83.2307 1.92813 83.2573 1.82977 83.2573 1.7274C83.2573 1.62504 83.2307 1.52667 83.183 1.45304C83.1354 1.37942 83.0705 1.33628 83.002 1.33273L83.002 1.33274Z" fill="#6C63FF"/>
<path d="M72.4158 73.4339C78.0597 73.4339 82.635 66.6015 82.635 58.1733C82.635 49.7451 78.0597 42.9128 72.4158 42.9128C66.7718 42.9128 62.1965 49.7451 62.1965 58.1733C62.1965 66.6015 66.7718 73.4339 72.4158 73.4339Z" fill="#6C63FF"/>
<path d="M75.0587 23.9686C77.2968 23.9686 79.1111 21.2592 79.1111 17.917C79.1111 14.5748 77.2968 11.8654 75.0587 11.8654C72.8206 11.8654 71.0062 14.5748 71.0062 17.917C71.0062 21.2592 72.8206 23.9686 75.0587 23.9686Z" fill="#6C63FF"/>
<path d="M25.5483 28.4415C27.7864 28.4415 29.6007 25.7322 29.6007 22.3899C29.6007 19.0477 27.7864 16.3383 25.5483 16.3383C23.3102 16.3383 21.4958 19.0477 21.4958 22.3899C21.4958 25.7322 23.3102 28.4415 25.5483 28.4415Z" fill="#6C63FF"/>
<path opacity="0.2" d="M140.976 125.664L143.693 98.6351L141.483 127.813L140.976 125.664Z" fill="black"/>
<path d="M145.416 10.0114C147.107 10.0114 148.479 7.96354 148.479 5.43732C148.479 2.9111 147.107 0.86319 145.416 0.86319C143.724 0.86319 142.352 2.9111 142.352 5.43732C142.352 7.96354 143.724 10.0114 145.416 10.0114Z" fill="#2F2E41"/>
<path d="M142.259 4.31741C142.31 3.15689 142.654 2.06866 143.223 1.27437C143.792 0.480069 144.542 0.0394493 145.321 0.0422451C145.258 0.0302609 145.195 0.0156945 145.131 0.00950224C144.729 -0.0294604 144.326 0.0501279 143.945 0.243715C143.564 0.437301 143.213 0.741092 142.91 1.13773C142.608 1.53437 142.361 2.01608 142.183 2.55534C142.006 3.09459 141.901 3.68082 141.875 4.28053C141.849 4.88023 141.903 5.48166 142.033 6.05044C142.163 6.61921 142.366 7.1442 142.632 7.59538C142.898 8.04657 143.221 8.41511 143.582 8.67996C143.943 8.9448 144.336 9.10076 144.738 9.13891C144.802 9.1451 144.865 9.14262 144.929 9.14285C144.157 8.9967 143.45 8.41625 142.954 7.51971C142.458 6.62318 142.21 5.478 142.259 4.31741V4.31741Z" fill="#2F2E41"/>
<path d="M137.758 19.4456C138.287 19.4456 138.715 18.5496 138.715 17.4444C138.715 16.3392 138.287 15.4432 137.758 15.4432C137.229 15.4432 136.801 16.3392 136.801 17.4444C136.801 18.5496 137.229 19.4456 137.758 19.4456Z" fill="#FFB8B8"/>
<path opacity="0.2" d="M135.844 54.895L131.598 75.9011L136.801 52.7834L135.844 54.895Z" fill="black"/>
</g>
<defs>
<clipPath id="clip0">
<rect width="170" height="170" fill="white"/>
</clipPath>
</defs>
</svg>
