<svg width="50" height="50" viewBox="0 0 50 50" fill="none" xmlns="http://www.w3.org/2000/svg">
<g clip-path="url(#clip0)">
<path d="M25.8937 49.9704C29.7172 49.4272 33.069 45.4365 35.1782 39.5431C32.1292 38.8603 29.0178 38.4938 25.8937 38.4501V49.9704Z" fill="#E3E3E3"/>
<path d="M32.0021 49.0331C32.2281 48.9677 32.4533 48.9018 32.6767 48.8294C32.8652 48.7687 33.051 48.7033 33.2369 48.6383C33.4568 48.5624 33.6759 48.4843 33.894 48.4014C34.0799 48.3307 34.264 48.2556 34.4486 48.1806C34.6615 48.0911 34.874 48.0021 35.0843 47.9127C35.268 47.8319 35.4504 47.7473 35.6328 47.6622C35.8392 47.5649 36.0447 47.4659 36.2484 47.3629C36.4273 47.2717 36.6058 47.1788 36.7847 47.0832C36.9849 46.9759 37.1839 46.8664 37.3816 46.7538C37.5604 46.6526 37.7328 46.5509 37.9069 46.4462C38.1006 46.3271 38.2935 46.208 38.485 46.0888C38.6565 45.9798 38.8275 45.8689 38.9964 45.7546C39.1849 45.6276 39.3708 45.4954 39.5558 45.3632C39.722 45.2441 39.8874 45.1254 40.0497 45.0059C40.2286 44.868 40.4118 44.7253 40.5911 44.5822C40.7504 44.4552 40.9092 44.3291 41.0659 44.1987C41.2443 44.0503 41.4154 43.8967 41.5886 43.7432C41.7404 43.6083 41.8931 43.4748 42.0415 43.3365C42.2121 43.1772 42.3783 43.0123 42.5446 42.8487C42.6886 42.7065 42.8343 42.5664 42.9752 42.4207C43.0014 42.3936 43.0263 42.3644 43.0533 42.3364C41.1043 41.3299 39.0514 40.5397 36.9304 39.9803C35.8274 43.4979 33.8644 46.6857 31.2194 49.2539C31.2918 49.2352 31.3642 49.2199 31.4366 49.2011C31.6278 49.1475 31.8154 49.0886 32.0021 49.0331V49.0331Z" fill="#E3E3E3"/>
<path d="M50.0002 25.9141H39.2858C39.2452 30.0976 38.6383 34.2562 37.4816 38.2769C39.8403 38.907 42.1166 39.8128 44.2634 40.9756C47.788 36.7275 49.8056 31.431 50.0002 25.9141V25.9141Z" fill="#E3E3E3"/>
<path d="M25.8937 24.1269H37.4986C37.4532 20.0914 36.8611 16.0807 35.7393 12.2039C32.5079 12.9409 29.2076 13.3344 25.8937 13.3781V24.1269Z" fill="#E3E3E3"/>
<path d="M25.8937 0.0706482V11.5909C29.0178 11.5468 32.1292 11.1808 35.1782 10.4979C33.069 4.60449 29.7172 0.613871 25.8937 0.0706482V0.0706482Z" fill="#E3E3E3"/>
<path d="M25.8937 36.6629C29.2076 36.707 32.5079 37.1006 35.7393 37.8375C36.8611 33.9608 37.4532 29.9497 37.4986 25.9141H25.8937V36.6629Z" fill="#E3E3E3"/>
<path d="M44.2634 9.06544C42.1166 10.2282 39.8403 11.1341 37.4816 11.7641C38.6383 15.7848 39.2452 19.9434 39.2858 24.1269H50.0002C49.8051 18.6105 47.7876 13.3139 44.2634 9.06544V9.06544Z" fill="#E3E3E3"/>
<path d="M43.0561 7.70981C43.0299 7.68319 43.005 7.65439 42.9793 7.62691C42.8379 7.48117 42.6913 7.34068 42.5473 7.19887C42.3815 7.03525 42.2161 6.86988 42.0451 6.71106C41.8972 6.57318 41.744 6.44272 41.5922 6.30528C41.419 6.15169 41.2458 5.9968 41.0677 5.84845C40.9133 5.71799 40.7549 5.5932 40.5978 5.46797C40.4189 5.32312 40.2357 5.17913 40.0515 5.04081C39.8901 4.91908 39.7265 4.80127 39.562 4.68346C39.3752 4.54908 39.1876 4.41513 38.9974 4.28728C38.8303 4.17471 38.6605 4.06476 38.4908 3.95699C38.2975 3.83263 38.1047 3.7109 37.9079 3.59309C37.7355 3.48968 37.5614 3.38758 37.3869 3.28854C37.1871 3.17422 36.9868 3.06339 36.7848 2.95519C36.6059 2.86574 36.4274 2.76844 36.2485 2.67899C36.043 2.57515 35.8358 2.47523 35.6233 2.37706C35.4444 2.29197 35.2629 2.20907 35.0787 2.12835C34.8671 2.03454 34.6533 1.9499 34.44 1.86045C34.2558 1.7854 34.0726 1.71123 33.8867 1.64054C33.6699 1.55764 33.4499 1.47997 33.23 1.40405C33.0442 1.33861 32.8583 1.27359 32.6698 1.21251C32.4464 1.14008 32.223 1.07419 31.9935 1.00787C31.8076 0.953332 31.6209 0.897919 31.4328 0.848178C31.3608 0.828543 31.2875 0.813272 31.2151 0.79451C33.8601 3.36271 35.8227 6.55006 36.9261 10.0681C39.0493 9.50877 41.1053 8.71815 43.0561 7.70981V7.70981Z" fill="#E3E3E3"/>
<path d="M0 24.1269H10.7144C10.7549 19.9434 11.3619 15.7848 12.5181 11.7641C10.1598 11.1345 7.8835 10.2287 5.73679 9.06544C2.21216 13.3135 0.1946 18.6105 0 24.1269Z" fill="#E3E3E3"/>
<path d="M24.1064 49.9704V38.4501C20.9824 38.4942 17.8709 38.8603 14.8219 39.5431C16.9307 45.4365 20.2829 49.4272 24.1064 49.9704Z" fill="#E3E3E3"/>
<path d="M24.1065 25.9141H12.5016C12.547 29.9497 13.1386 33.9608 14.2608 37.8375C17.4923 37.1001 20.7922 36.7066 24.1065 36.6629V25.9141Z" fill="#E3E3E3"/>
<path d="M24.1064 0.0706482C20.2829 0.613871 16.9307 4.60449 14.8219 10.4979C17.8709 11.1812 20.9824 11.5473 24.1064 11.5909V0.0706482Z" fill="#E3E3E3"/>
<path d="M24.1065 13.3781C20.7926 13.3344 17.4923 12.9409 14.2608 12.2039C13.1386 16.0807 12.547 20.0914 12.5016 24.1269H24.1065V13.3781Z" fill="#E3E3E3"/>
<path d="M18.778 0.793625C18.7056 0.812387 18.6331 0.827658 18.5607 0.84642C18.3713 0.897034 18.1846 0.953319 17.9961 1.00786C17.7718 1.07331 17.5493 1.13919 17.3242 1.21075C17.1344 1.27227 16.9476 1.33772 16.7609 1.40273C16.5423 1.47996 16.3232 1.55676 16.1068 1.63878C15.9201 1.71034 15.736 1.78452 15.551 1.86044C15.3385 1.94988 15.1255 2.03933 14.9157 2.12834C14.7315 2.20906 14.5496 2.29371 14.3672 2.37879C14.1608 2.47609 13.9553 2.57514 13.7516 2.67811C13.5727 2.7693 13.3938 2.86267 13.2153 2.95779C13.015 3.06513 12.8165 3.17508 12.6193 3.28765C12.4404 3.38757 12.2646 3.49011 12.0922 3.59482C11.8981 3.71176 11.7061 3.83262 11.515 3.95217C11.343 4.06213 11.1724 4.17295 11.0036 4.28727C10.8151 4.41424 10.6292 4.54645 10.4442 4.67865C10.278 4.79777 10.1126 4.91645 9.94987 5.03644C9.76705 5.17388 9.59252 5.31699 9.40839 5.45967C9.24957 5.58664 9.08944 5.71274 8.93411 5.84407C8.75522 5.99155 8.58549 6.14426 8.41314 6.29698C8.26043 6.43311 8.1064 6.56532 7.95718 6.70625C7.78745 6.86464 7.62208 7.02913 7.45628 7.19231C7.31229 7.33456 7.16569 7.47505 7.02432 7.62122C6.99858 7.64827 6.97371 7.67794 6.94666 7.70543C8.89528 8.71247 10.9486 9.50265 13.0696 10.062C14.1726 6.54612 16.1343 3.36052 18.778 0.793625V0.793625Z" fill="#E3E3E3"/>
<path d="M7.45239 42.8422C7.61863 43.0058 7.78399 43.1711 7.95459 43.3304C8.10295 43.4678 8.25566 43.5983 8.40794 43.7358C8.58116 43.8898 8.75438 44.0442 8.9324 44.1926C9.08686 44.3222 9.24437 44.4474 9.40232 44.5731C9.58121 44.7179 9.75967 44.8619 9.94903 45.0011C10.11 45.122 10.2737 45.2389 10.4373 45.3589C10.624 45.4928 10.8125 45.6268 11.0028 45.7555C11.1699 45.8681 11.3396 45.978 11.5093 46.0862C11.7026 46.2101 11.8955 46.3319 12.0923 46.4497C12.2646 46.5535 12.4387 46.6552 12.6132 46.7547C12.8131 46.869 13.0133 46.9798 13.2154 47.0876C13.3938 47.177 13.5727 47.2743 13.7516 47.3638C13.9571 47.4676 14.1644 47.5676 14.3768 47.6662C14.5557 47.7504 14.7373 47.8333 14.9214 47.9144C15.133 48.0082 15.3464 48.0929 15.5602 48.1823C15.7443 48.2574 15.9275 48.3316 16.1134 48.4022C16.3303 48.4856 16.5502 48.5632 16.7701 48.6392C16.956 48.7042 17.1418 48.7696 17.3303 48.8303C17.5537 48.9027 17.7771 48.969 18.0066 49.0349C18.1925 49.0894 18.3792 49.1449 18.5669 49.195C18.6393 49.2147 18.7126 49.2299 18.785 49.2487C16.14 46.6801 14.1774 43.4927 13.074 39.9746C10.953 40.5344 8.89967 41.3246 6.95105 42.3321C6.97723 42.3587 7.0021 42.3875 7.02828 42.415C7.16223 42.5599 7.30665 42.7004 7.45239 42.8422V42.8422Z" fill="#E3E3E3"/>
<path d="M5.73679 40.9756C7.8835 39.8128 10.1598 38.907 12.5181 38.2769C11.3619 34.2562 10.7549 30.0976 10.7144 25.9141H0C0.195037 31.4305 2.21216 36.7271 5.73679 40.9756V40.9756Z" fill="#E3E3E3"/>
</g>
<defs>
<clipPath id="clip0">
<rect width="50" height="50" fill="white"/>
</clipPath>
</defs>
</svg>
